<svg xmlns="http://www.w3.org/2000/svg" version="1.1" xmlns:xlink="http://www.w3.org/1999/xlink" xmlns:svgjs="http://svgjs.com/svgjs" width="468" height="114"><svg xmlns="http://www.w3.org/2000/svg" version="1.1" xmlns:xlink="http://www.w3.org/1999/xlink" xmlns:svgjs="http://svgjs.com/svgjs" width="136.995" height="20.25" transform="matrix(1,0,0,1,0,0.014)"><path d="M84.276,12.68h.168A6.144,6.144,0,0,0,85.8,13.971a2.943,2.943,0,0,0,1.685.494,2.246,2.246,0,0,0,1.606-.55,2.044,2.044,0,0,0-.1-2.988A6.313,6.313,0,0,0,87.23,9.883a6.032,6.032,0,0,1-2.123-1.359,2.808,2.808,0,0,1-.786-1.954,2.5,2.5,0,0,1,.955-2.044,3.594,3.594,0,0,1,2.336-.775,4,4,0,0,1,2.684.921l.067,1.584h-.225A3.37,3.37,0,0,0,87.533,4.93a2.1,2.1,0,0,0-1.382.449A1.415,1.415,0,0,0,85.613,6.5c0,.977.865,1.674,2.471,2.37,1.966.831,3.044,1.909,3.044,3.37a3.246,3.246,0,0,1-1.056,2.482,3.673,3.673,0,0,1-2.64.988,4.56,4.56,0,0,1-3.3-1.325l.09-1.719ZM93.61,8.322A4.066,4.066,0,0,1,96.474,7.1a3.853,3.853,0,0,1,2.842,1.123,3.909,3.909,0,0,1,1.123,2.9v.663H93.7a3.044,3.044,0,0,0,.528,1.516A2.842,2.842,0,0,0,96.62,14.56a3.931,3.931,0,0,0,1.55-.292,5.616,5.616,0,0,0,1.539-1.056h.124v1.449A4.942,4.942,0,0,1,96.71,15.78a4.313,4.313,0,0,1-2.19-.573A4.156,4.156,0,0,1,92.97,13.6a4.391,4.391,0,0,1-.55-2.19,4.38,4.38,0,0,1,1.2-3.089Zm5.616,2.336a2.741,2.741,0,0,0-.876-1.8,2.617,2.617,0,0,0-1.876-.7,2.538,2.538,0,0,0-1.707.651,2.943,2.943,0,0,0-.966,1.82h5.425Zm2.875,4.83V7.322h1.325v1.2a2.819,2.819,0,0,1,1.033-1.056,2.6,2.6,0,0,1,1.3-.359,2.089,2.089,0,0,1,1.247.382l.09,1.337h-.157a1.921,1.921,0,0,0-1.393-.539,2.1,2.1,0,0,0-1.438.573,2.64,2.64,0,0,0-.7,1.966v4.661H102.09Zm6.593-11.3a.921.921,0,1,1,0,1.3.932.932,0,0,1,0-1.3Zm0,11.3V7.322h1.325v8.166h-1.325Zm4.212-7.166A4.066,4.066,0,0,1,115.771,7.1a3.853,3.853,0,0,1,2.842,1.123,3.909,3.909,0,0,1,1.123,2.9v.663H113a3.033,3.033,0,0,0,.528,1.516,2.842,2.842,0,0,0,2.392,1.258,3.943,3.943,0,0,0,1.561-.292,5.616,5.616,0,0,0,1.5-1.033h.124v1.449a4.9,4.9,0,0,1-3.123,1.123,4.3,4.3,0,0,1-2.179-.573,4.122,4.122,0,0,1-1.528-1.561,4.583,4.583,0,0,1,.651-5.279Zm5.616,2.336a2.763,2.763,0,0,0-.865-1.8,2.6,2.6,0,0,0-1.865-.7,2.538,2.538,0,0,0-1.707.651,2.943,2.943,0,0,0-.966,1.82h5.425Zm2.718,2.977h.1a3.8,3.8,0,0,0,2.336.887c1.033,0,1.662-.483,1.662-1.213a1.123,1.123,0,0,0-.449-.91,5.616,5.616,0,0,0-1.449-.663,4.65,4.65,0,0,1-1.572-.831,2.067,2.067,0,0,1-.7-1.606,1.943,1.943,0,0,1,.775-1.539,2.819,2.819,0,0,1,1.887-.651,4.347,4.347,0,0,1,2.246.629l.056,1.269h-.112a3.549,3.549,0,0,0-2.246-.786c-.842,0-1.471.393-1.471,1.123a1,1,0,0,0,.472.865,6.548,6.548,0,0,0,1.471.685,5.01,5.01,0,0,1,1.741.91,1.9,1.9,0,0,1,.64,1.516,2.246,2.246,0,0,1-.876,1.786,3.28,3.28,0,0,1-2.112.708,4.886,4.886,0,0,1-2.729-.831l.314-1.258Z" transform="matrix(1,0,0,1,10.366,0.463)" fill="#002c51"></path><path d="M35.918,9.594a4.729,4.729,0,0,0,2.954-4.381A4.571,4.571,0,0,0,37.1,1.439,7.93,7.93,0,0,0,32.054,0H25V20.219h8.154a6.661,6.661,0,0,0,5.762-2.583,5.391,5.391,0,0,0,.932-3.145,4.605,4.605,0,0,0-1.123-3.145,5.616,5.616,0,0,0-2.808-1.752ZM29.1,11.66h3.65c1.954,0,2.92.809,2.92,2.482s-.943,2.482-2.92,2.482H29.1Zm5.212-4.178a3.156,3.156,0,0,1-2.246.618H29.1V3.607h2.965a3.156,3.156,0,0,1,2.246.584,2.246,2.246,0,0,1,.584,1.64,2.246,2.246,0,0,1-.584,1.651ZM59.819,0H58.573L53.339,11.93,48.194,0H46.835l-5.38,20.218h4.032l2.92-10.513L52.9,19.422h.91L58.3,9.706l2.842,10.513h4.032ZM81.34,15.165a8.076,8.076,0,0,1-4.493,1.46,6.357,6.357,0,0,1-4.774-1.808,6.56,6.56,0,0,1-1.82-4.706,6.492,6.492,0,0,1,1.73-4.661,6.357,6.357,0,0,1,4.774-1.808A8.076,8.076,0,0,1,81.25,5.067l.91-3.5A10.963,10.963,0,0,0,79.6.372,11.479,11.479,0,0,0,76.566,0a10.985,10.985,0,0,0-5.234,1.28,9.525,9.525,0,0,0-3.65,3.628,10.109,10.109,0,0,0-1.393,5.2,10.255,10.255,0,0,0,.786,4.032,9.6,9.6,0,0,0,2.168,3.212,10.682,10.682,0,0,0,7.346,2.864,11.3,11.3,0,0,0,3.033-.348,11,11,0,0,0,2.662-1.123l-.932-3.572Z" transform="matrix(1,0,0,1,3.08,0)" fill="#1b3051"></path><path d="M0,.02H20.184V20.2Z" transform="matrix(1,0,0,1,0,0.004)" fill="#00cba8"></path><path d="M20.184,20.2H0V.02Z" transform="matrix(1,0,0,1,0,0.004)" fill="#1b3051"></path></svg><path d="M8.91 52.26L5.82 52.26L5.82 47.099999999999994L8.91 47.099999999999994C9.81 47.099999999999994 10.56 47.3 11.16 47.699999999999996C11.76 48.099999999999994 12.06 48.78 12.06 49.739999999999995C12.06 50.64 11.79 51.28 11.23 51.67C10.69 52.06999999999999 9.91 52.26 8.91 52.26ZM9.66 61.26L9.66 61.26L5.82 61.26L5.82 55.67999999999999L9.66 55.67999999999999C10.66 55.67999999999999 11.49 55.89 12.15 56.31999999999999C12.81 56.76 13.14 57.47 13.14 58.47C13.14 59.47 12.81 60.19 12.15 60.61C11.49 61.05 10.66 61.26 9.66 61.26ZM2.22 43.68L2.22 64.67999999999999L9.78 64.67999999999999C10.76 64.67999999999999 11.68 64.53 12.54 64.22999999999999C13.4 63.92999999999999 14.14 63.51 14.77 62.97C15.4 62.42999999999999 15.9 61.769999999999996 16.26 61C16.62 60.23 16.8 59.379999999999995 16.8 58.44C16.8 57.519999999999996 16.64 56.75 16.34 56.129999999999995C16.03 55.51 15.67 55.01 15.29 54.629999999999995C14.89 54.25 14.52 53.98 14.17 53.81999999999999C13.82 53.66 13.61 53.56999999999999 13.53 53.55C13.65 53.489999999999995 13.83 53.37 14.07 53.209999999999994C14.31 53.03 14.55 52.79 14.8 52.47C15.06 52.15 15.27 51.739999999999995 15.45 51.239999999999995C15.63 50.739999999999995 15.72 50.129999999999995 15.72 49.41C15.72 48.41 15.53 47.55 15.15 46.83C14.77 46.11 14.27 45.519999999999996 13.65 45.05C13.03 44.57 12.32 44.23 11.52 44.01C10.72 43.79 9.89 43.68 9.03 43.68ZM23.46 43.68L20.13 43.68L20.13 64.67999999999999L23.73 64.67999999999999L23.73 50.58L30.3 60.56999999999999L36.87 50.58L36.87 64.67999999999999L40.47 64.67999999999999L40.47 43.68L37.14 43.68L30.3 54.239999999999995ZM54.6 61.67999999999999C53.56 61.67999999999999 52.61 61.48 51.75 61.08C50.89 60.67999999999999 50.15 60.14 49.53 59.44C48.91 58.75 48.43 57.959999999999994 48.09 57.06C47.75 56.16 47.58 55.2 47.58 54.17999999999999C47.58 53.16 47.75 52.2 48.09 51.3C48.43 50.4 48.91 49.599999999999994 49.52 48.91C50.13 48.23 50.86 47.68 51.72 47.28C52.58 46.879999999999995 53.53 46.68 54.57 46.68C55.81 46.68 56.88 46.93 57.8 47.41C58.7 47.9 59.41 48.43 59.91 48.989999999999995L62.34 46.62C62 46.239999999999995 61.58 45.849999999999994 61.08 45.459999999999994C60.58 45.07 60 44.72 59.34 44.4C58.68 44.08 57.95 43.82 57.15 43.62C56.35 43.42 55.48 43.32 54.54 43.32C53.04 43.32 51.64 43.599999999999994 50.34 44.14C49.04 44.699999999999996 47.92 45.459999999999994 46.96 46.42C46.02 47.39 45.27 48.54 44.73 49.86C44.19 51.17999999999999 43.92 52.62 43.92 54.17999999999999C43.92 55.739999999999995 44.19 57.17999999999999 44.73 58.5C45.27 59.81999999999999 46.02 60.959999999999994 46.96 61.92999999999999C47.92 62.91 49.04 63.67 50.34 64.21C51.64 64.75999999999999 53.05 65.03999999999999 54.57 65.03999999999999C55.49 65.03999999999999 56.36 64.94 57.18 64.74C58 64.53999999999999 58.75 64.27 59.43 63.92999999999999C60.11 63.589999999999996 60.72 63.209999999999994 61.26 62.79C61.8 62.37 62.26 61.92999999999999 62.64 61.47L60.24 59.099999999999994C59.68 59.76 58.91 60.349999999999994 57.95 60.89C56.97 61.41 55.86 61.67999999999999 54.6 61.67999999999999ZM77.97 43.68L74.64 43.68L74.64 64.67999999999999L78.24 64.67999999999999L78.24 50.58L84.81 60.56999999999999L91.38 50.58L91.38 64.67999999999999L94.98 64.67999999999999L94.98 43.68L91.65 43.68L84.81 54.239999999999995ZM108.96 56.25L101.91 56.25C101.93 55.92999999999999 102.01 55.599999999999994 102.16 55.26C102.31 54.92 102.53 54.61 102.82 54.33C103.12 54.05 103.47 53.81999999999999 103.89 53.64C104.31 53.459999999999994 104.81 53.37 105.39 53.37C105.99 53.37 106.51 53.459999999999994 106.95 53.64C107.39 53.81999999999999 107.76 54.06 108.04 54.349999999999994C108.33 54.629999999999995 108.55 54.95 108.7 55.29C108.85 55.629999999999995 108.94 55.95 108.96 56.25ZM105.39 50.099999999999994C104.37 50.099999999999994 103.42 50.29 102.54 50.67999999999999C101.66 51.06999999999999 100.9 51.599999999999994 100.27 52.28C99.64 52.95 99.15 53.73 98.79 54.629999999999995C98.43 55.53 98.25 56.489999999999995 98.25 57.51C98.25 58.56999999999999 98.44 59.56 98.83 60.48C99.22 61.4 99.76 62.2 100.45 62.879999999999995C101.14 63.56 101.95 64.09 102.88 64.47C103.81 64.85 104.82 65.03999999999999 105.9 65.03999999999999C107.16 65.03999999999999 108.28 64.82 109.26 64.38C110.24 63.94 111.02 63.48 111.6 63L109.8 60.3C109.24 60.81999999999999 108.61 61.19 107.91 61.41C107.21 61.629999999999995 106.56 61.739999999999995 105.96 61.739999999999995C105.38 61.739999999999995 104.86 61.65 104.4 61.47C103.94 61.29 103.54 61.06999999999999 103.18 60.79C102.83 60.519999999999996 102.55 60.22 102.34 59.879999999999995C102.13 59.54 101.99 59.2 101.91 58.86L112.53 58.86C112.55 58.58 112.56 58.31999999999999 112.56 58.08L112.56 57.51C112.56 56.41 112.37 55.41 111.99 54.489999999999995C111.61 53.58 111.09 52.8 110.44 52.15C109.8 51.51 109.03 51 108.16 50.64C107.29 50.28 106.37 50.099999999999994 105.39 50.099999999999994ZM125.4 55.44L125.4 59.7C125.1 60.22 124.67 60.67999999999999 124.11 61.08C123.55 61.48 122.83 61.67999999999999 121.95 61.67999999999999C120.77 61.67999999999999 119.83 61.29 119.14 60.51C118.45 59.73 118.11 58.75 118.11 57.56999999999999C118.11 56.39 118.45 55.41 119.14 54.629999999999995C119.83 53.849999999999994 120.77 53.459999999999994 121.95 53.459999999999994C122.83 53.459999999999994 123.55 53.66 124.11 54.06C124.67 54.459999999999994 125.1 54.92 125.4 55.44ZM129 64.67999999999999L129 42L125.4 42L125.4 51.959999999999994C125.04 51.5 124.53 51.06999999999999 123.87 50.67999999999999C123.21 50.29 122.37 50.099999999999994 121.35 50.099999999999994C120.45 50.099999999999994 119.58 50.28 118.74 50.65C117.9 51.03 117.16 51.54 116.53 52.2C115.9 52.86 115.4 53.64 115.02 54.55C114.64 55.47 114.45 56.47 114.45 57.56999999999999C114.45 58.65 114.64 59.65 115.02 60.56999999999999C115.4 61.489999999999995 115.9 62.28 116.53 62.94C117.16 63.599999999999994 117.89 64.12 118.72 64.47999999999999C119.55 64.85 120.43 65.03999999999999 121.35 65.03999999999999C122.43 65.03999999999999 123.33 64.82 124.05 64.36C124.77 63.91 125.31 63.4 125.67 62.81999999999999L125.67 64.67999999999999ZM133.23 45.87C133.23 46.53 133.46 47.089999999999996 133.92 47.55C134.38 48.01 134.94 48.239999999999995 135.6 48.239999999999995C136.26 48.239999999999995 136.82 48.01 137.28 47.55C137.74 47.089999999999996 137.97 46.53 137.97 45.87C137.97 45.209999999999994 137.74 44.65 137.28 44.19C136.82 43.73 136.26 43.5 135.6 43.5C134.94 43.5 134.38 43.73 133.92 44.19C133.46 44.65 133.23 45.209999999999994 133.23 45.87ZM133.8 50.459999999999994L133.8 64.67999999999999L137.4 64.67999999999999L137.4 50.459999999999994ZM148.5 61.67999999999999C147.88 61.67999999999999 147.32 61.56999999999999 146.83 61.349999999999994C146.35 61.129999999999995 145.93 60.83 145.57 60.459999999999994C145.22 60.099999999999994 144.95 59.66 144.76 59.16C144.58 58.66 144.48 58.129999999999995 144.48 57.56999999999999C144.48 57.01 144.58 56.489999999999995 144.76 55.989999999999995C144.96 55.5 145.22 55.06999999999999 145.56 54.69C145.9 54.31 146.32 54.01 146.82 53.79C147.32 53.56999999999999 147.87 53.459999999999994 148.47 53.459999999999994C149.19 53.459999999999994 149.84 53.61 150.42 53.91C151 54.209999999999994 151.46 54.56 151.8 54.959999999999994L154.29 52.739999999999995C154.05 52.44 153.74 52.14 153.36 51.81999999999999C152.98 51.51 152.55 51.23 152.05 50.97C151.56 50.709999999999994 151.02 50.5 150.42 50.339999999999996C149.82 50.17999999999999 149.17 50.099999999999994 148.47 50.099999999999994C147.41 50.099999999999994 146.41 50.29 145.48 50.67C144.55 51.05 143.74 51.58 143.05 52.26C142.36 52.94 141.82 53.73 141.42 54.64C141.02 55.56 140.82 56.53 140.82 57.56999999999999C140.82 58.61 141.02 59.589999999999996 141.42 60.489999999999995C141.82 61.4 142.36 62.19 143.05 62.86C143.74 63.53 144.55 64.07 145.48 64.45C146.41 64.84 147.41 65.03999999999999 148.47 65.03999999999999C149.19 65.03999999999999 149.85 64.96 150.45 64.78C151.05 64.61 151.6 64.4 152.1 64.14C152.6 63.879999999999995 153.04 63.589999999999996 153.42 63.269999999999996C153.8 62.95 154.11 62.64 154.35 62.339999999999996L151.98 59.94C151.7 60.36 151.26 60.76 150.66 61.12C150.06 61.5 149.34 61.67999999999999 148.5 61.67999999999999ZM162.99 50.099999999999994C161.89 50.099999999999994 160.84 50.23 159.85 50.489999999999995C158.86 50.75 158.01 51.05 157.29 51.39L158.46 54.36C159.3 53.98 160.09 53.709999999999994 160.83 53.55C161.57 53.39 162.18 53.31 162.66 53.31C163 53.31 163.35 53.349999999999994 163.72 53.42999999999999C164.1 53.51 164.43 53.64 164.73 53.83C165.03 54.03 165.28 54.28 165.48 54.599999999999994C165.68 54.92 165.78 55.31 165.78 55.769999999999996L165.78 56.58C165.26 56.239999999999995 164.65 55.98 163.95 55.81999999999999C163.25 55.65 162.57 55.56 161.91 55.56C161.11 55.56 160.36 55.67999999999999 159.67 55.9C158.98 56.129999999999995 158.38 56.459999999999994 157.88 56.879999999999995C157.36 57.3 156.97 57.8 156.67 58.39C156.38 58.989999999999995 156.24 59.64 156.24 60.36C156.24 61.08 156.38 61.73 156.66 62.31C156.94 62.89 157.32 63.379999999999995 157.8 63.79C158.28 64.21 158.84 64.50999999999999 159.47 64.72999999999999C160.09 64.92999999999999 160.75 65.03999999999999 161.43 65.03999999999999C162.43 65.03999999999999 163.33 64.84 164.14 64.42C164.95 64.00999999999999 165.59 63.5 166.05 62.879999999999995L166.05 64.67999999999999L169.38 64.67999999999999L169.38 55.41C169.38 53.79 168.81 52.5 167.67 51.54C166.53 50.58 164.97 50.099999999999994 162.99 50.099999999999994ZM162.42 62.04C162.16 62.04 161.88 62.01 161.58 61.959999999999994C161.28 61.92 161 61.83 160.75 61.69C160.5 61.56 160.3 61.379999999999995 160.14 61.14C159.98 60.9 159.9 60.589999999999996 159.9 60.209999999999994C159.9 59.83 159.98 59.51 160.16 59.25C160.33 58.989999999999995 160.54 58.78 160.81 58.64C161.08 58.48 161.38 58.37 161.7 58.3C162.02 58.239999999999995 162.34 58.2 162.66 58.2C163.12 58.2 163.64 58.26 164.22 58.379999999999995C164.8 58.5 165.32 58.67999999999999 165.78 58.92L165.78 60.39C165.46 60.79 165.03 61.17 164.49 61.51C163.95 61.86 163.26 62.04 162.42 62.04ZM173.61 42L173.61 64.67999999999999L177.21 64.67999999999999L177.21 42ZM197.34 53.339999999999996L197.34 53.339999999999996L194.49 53.339999999999996L194.49 47.099999999999994L197.34 47.099999999999994C198.5 47.099999999999994 199.41 47.36 200.09 47.879999999999995C200.76 48.4 201.09 49.18 201.09 50.22C201.09 51.26 200.76 52.04 200.09 52.56C199.41 53.08 198.5 53.339999999999996 197.34 53.339999999999996ZM190.89 43.68L190.89 64.67999999999999L194.49 64.67999999999999L194.49 56.76L196.14 56.76L201.12 64.67999999999999L205.32 64.67999999999999L200.07 56.519999999999996C201.57 56.14 202.73 55.39 203.54 54.269999999999996C204.35 53.15 204.75 51.81999999999999 204.75 50.28C204.75 49.3 204.59 48.4 204.26 47.589999999999996C203.93 46.78 203.46 46.089999999999996 202.85 45.51C202.23 44.93 201.5 44.48 200.64 44.16C199.78 43.839999999999996 198.83 43.68 197.79 43.68ZM217.92 56.25L210.87 56.25C210.89 55.92999999999999 210.98 55.599999999999994 211.13 55.26C211.28 54.92 211.49 54.61 211.79 54.33C212.08 54.05 212.43 53.81999999999999 212.85 53.64C213.27 53.459999999999994 213.77 53.37 214.35 53.37C214.95 53.37 215.47 53.459999999999994 215.91 53.64C216.35 53.81999999999999 216.72 54.06 217.01 54.349999999999994C217.29 54.629999999999995 217.52 54.95 217.67 55.29C217.82 55.629999999999995 217.9 55.95 217.92 56.25ZM214.35 50.099999999999994C213.33 50.099999999999994 212.38 50.29 211.5 50.67999999999999C210.62 51.06999999999999 209.87 51.599999999999994 209.24 52.28C208.61 52.95 208.11 53.73 207.75 54.629999999999995C207.39 55.53 207.21 56.489999999999995 207.21 57.51C207.21 58.56999999999999 207.41 59.56 207.8 60.48C208.19 61.4 208.73 62.2 209.42 62.879999999999995C210.11 63.56 210.92 64.09 211.85 64.47C212.78 64.85 213.78 65.03999999999999 214.86 65.03999999999999C216.12 65.03999999999999 217.24 64.82 218.22 64.38C219.2 63.94 219.98 63.48 220.56 63L218.76 60.3C218.2 60.81999999999999 217.57 61.19 216.87 61.41C216.17 61.629999999999995 215.52 61.739999999999995 214.92 61.739999999999995C214.34 61.739999999999995 213.82 61.65 213.36 61.47C212.9 61.29 212.5 61.06999999999999 212.15 60.79C211.79 60.519999999999996 211.52 60.22 211.31 59.879999999999995C211.1 59.54 210.95 59.2 210.87 58.86L221.49 58.86C221.51 58.58 221.52 58.31999999999999 221.52 58.08L221.52 57.51C221.52 56.41 221.33 55.41 220.95 54.489999999999995C220.57 53.58 220.05 52.8 219.41 52.15C218.76 51.51 218 51 217.13 50.64C216.26 50.28 215.33 50.099999999999994 214.35 50.099999999999994ZM225.48 59.849999999999994L223.47 62.459999999999994C223.77 62.78 224.14 63.099999999999994 224.57 63.4C225 63.709999999999994 225.48 63.989999999999995 226.02 64.22999999999999C226.56 64.47 227.15 64.66 227.81 64.82C228.46 64.96 229.16 65.03999999999999 229.92 65.03999999999999C230.74 65.03999999999999 231.52 64.94 232.26 64.74C233 64.53999999999999 233.66 64.24 234.23 63.849999999999994C234.8 63.459999999999994 235.25 62.98 235.59 62.4C235.93 61.81999999999999 236.1 61.15 236.1 60.39C236.1 59.709999999999994 235.97 59.14 235.7 58.66C235.43 58.2 235.07 57.8 234.63 57.48C234.19 57.16 233.67 56.9 233.09 56.7C232.49 56.5 231.89 56.33 231.27 56.19C230.07 55.92999999999999 229.21 55.709999999999994 228.69 55.51C228.17 55.33 227.91 55.03 227.91 54.629999999999995C227.91 54.19 228.17 53.849999999999994 228.69 53.61C229.21 53.37 229.79 53.25 230.43 53.25C231.17 53.25 231.85 53.379999999999995 232.47 53.64C233.09 53.9 233.61 54.17999999999999 234.03 54.48L235.83 51.839999999999996C235.29 51.44 234.57 51.05 233.66 50.67C232.74 50.29 231.66 50.099999999999994 230.4 50.099999999999994C229.44 50.099999999999994 228.59 50.22 227.85 50.47C227.11 50.72 226.48 51.06 225.96 51.489999999999995C225.44 51.92 225.05 52.41 224.78 52.959999999999994C224.51 53.519999999999996 224.37 54.089999999999996 224.37 54.69C224.37 55.349999999999994 224.52 55.92 224.82 56.39C225.12 56.849999999999994 225.52 57.26 226.02 57.61C226.52 57.959999999999994 227.09 58.25 227.72 58.48C228.35 58.709999999999994 228.99 58.9 229.65 59.04C230.03 59.14 230.4 59.23 230.75 59.29C231.09 59.37 231.39 59.45 231.65 59.55C231.9 59.65 232.1 59.769999999999996 232.25 59.92C232.4 60.06999999999999 232.47 60.269999999999996 232.47 60.51C232.47 60.989999999999995 232.22 61.339999999999996 231.71 61.56C231.2 61.78 230.62 61.89 229.98 61.89C229.44 61.89 228.95 61.83 228.5 61.69C228.05 61.56 227.63 61.4 227.27 61.2C226.9 61 226.57 60.78 226.28 60.54C225.99 60.3 225.72 60.06999999999999 225.48 59.849999999999994ZM248.82 56.25L241.77 56.25C241.79 55.92999999999999 241.88 55.599999999999994 242.03 55.26C242.18 54.92 242.39 54.61 242.69 54.33C242.98 54.05 243.33 53.81999999999999 243.75 53.64C244.17 53.459999999999994 244.67 53.37 245.25 53.37C245.85 53.37 246.37 53.459999999999994 246.81 53.64C247.25 53.81999999999999 247.62 54.06 247.91 54.349999999999994C248.19 54.629999999999995 248.42 54.95 248.57 55.29C248.72 55.629999999999995 248.8 55.95 248.82 56.25ZM245.25 50.099999999999994C244.23 50.099999999999994 243.28 50.29 242.4 50.67999999999999C241.52 51.06999999999999 240.77 51.599999999999994 240.14 52.28C239.51 52.95 239.01 53.73 238.65 54.629999999999995C238.29 55.53 238.11 56.489999999999995 238.11 57.51C238.11 58.56999999999999 238.31 59.56 238.7 60.48C239.09 61.4 239.63 62.2 240.32 62.879999999999995C241.01 63.56 241.82 64.09 242.75 64.47C243.68 64.85 244.68 65.03999999999999 245.76 65.03999999999999C247.02 65.03999999999999 248.14 64.82 249.12 64.38C250.1 63.94 250.88 63.48 251.46 63L249.66 60.3C249.1 60.81999999999999 248.47 61.19 247.77 61.41C247.07 61.629999999999995 246.42 61.739999999999995 245.82 61.739999999999995C245.24 61.739999999999995 244.72 61.65 244.26 61.47C243.8 61.29 243.4 61.06999999999999 243.05 60.79C242.69 60.519999999999996 242.42 60.22 242.21 59.879999999999995C242 59.54 241.85 59.2 241.77 58.86L252.39 58.86C252.41 58.58 252.42 58.31999999999999 252.42 58.08L252.42 57.51C252.42 56.41 252.23 55.41 251.85 54.489999999999995C251.47 53.58 250.95 52.8 250.31 52.15C249.66 51.51 248.9 51 248.03 50.64C247.16 50.28 246.23 50.099999999999994 245.25 50.099999999999994ZM261.36 50.099999999999994C260.26 50.099999999999994 259.22 50.23 258.23 50.489999999999995C257.24 50.75 256.38 51.05 255.66 51.39L256.83 54.36C257.67 53.98 258.46 53.709999999999994 259.2 53.55C259.94 53.39 260.55 53.31 261.03 53.31C261.37 53.31 261.72 53.349999999999994 262.1 53.42999999999999C262.47 53.51 262.8 53.64 263.1 53.83C263.4 54.03 263.65 54.28 263.85 54.599999999999994C264.05 54.92 264.15 55.31 264.15 55.769999999999996L264.15 56.58C263.63 56.239999999999995 263.02 55.98 262.32 55.81999999999999C261.62 55.65 260.94 55.56 260.28 55.56C259.48 55.56 258.74 55.67999999999999 258.05 55.9C257.36 56.129999999999995 256.76 56.459999999999994 256.25 56.879999999999995C255.74 57.3 255.34 57.8 255.05 58.39C254.75 58.989999999999995 254.61 59.64 254.61 60.36C254.61 61.08 254.75 61.73 255.03 62.31C255.31 62.89 255.69 63.379999999999995 256.17 63.79C256.65 64.21 257.21 64.50999999999999 257.84 64.72999999999999C258.47 64.92999999999999 259.12 65.03999999999999 259.8 65.03999999999999C260.8 65.03999999999999 261.71 64.84 262.52 64.42C263.33 64.00999999999999 263.96 63.5 264.42 62.879999999999995L264.42 64.67999999999999L267.75 64.67999999999999L267.75 55.41C267.75 53.79 267.18 52.5 266.04 51.54C264.9 50.58 263.34 50.099999999999994 261.36 50.099999999999994ZM260.79 62.04C260.53 62.04 260.25 62.01 259.95 61.959999999999994C259.65 61.92 259.37 61.83 259.13 61.69C258.87 61.56 258.67 61.379999999999995 258.51 61.14C258.35 60.9 258.27 60.589999999999996 258.27 60.209999999999994C258.27 59.83 258.35 59.51 258.53 59.25C258.7 58.989999999999995 258.92 58.78 259.19 58.64C259.46 58.48 259.75 58.37 260.07 58.3C260.39 58.239999999999995 260.71 58.2 261.03 58.2C261.49 58.2 262.01 58.26 262.59 58.379999999999995C263.17 58.5 263.69 58.67999999999999 264.15 58.92L264.15 60.39C263.83 60.79 263.4 61.17 262.86 61.51C262.32 61.86 261.63 62.04 260.79 62.04ZM278.91 50.099999999999994C277.95 50.099999999999994 277.14 50.349999999999994 276.48 50.849999999999994C275.82 51.349999999999994 275.32 51.91 274.98 52.53L274.98 50.459999999999994L271.56 50.459999999999994L271.56 64.67999999999999L275.16 64.67999999999999L275.16 55.379999999999995C275.44 54.92 275.84 54.48 276.36 54.06999999999999C276.88 53.67 277.56 53.459999999999994 278.4 53.459999999999994C278.72 53.459999999999994 279.03 53.489999999999995 279.32 53.55C279.61 53.61 279.85 53.69 280.05 53.79L281.31 50.55C280.89 50.39 280.47 50.28 280.05 50.209999999999994C279.63 50.129999999999995 279.25 50.099999999999994 278.91 50.099999999999994ZM290.1 61.67999999999999C289.48 61.67999999999999 288.92 61.56999999999999 288.44 61.349999999999994C287.95 61.129999999999995 287.53 60.83 287.18 60.459999999999994C286.82 60.099999999999994 286.55 59.66 286.37 59.16C286.18 58.66 286.08 58.129999999999995 286.08 57.56999999999999C286.08 57.01 286.18 56.489999999999995 286.37 55.989999999999995C286.56 55.5 286.82 55.06999999999999 287.16 54.69C287.5 54.31 287.92 54.01 288.42 53.79C288.92 53.56999999999999 289.47 53.459999999999994 290.07 53.459999999999994C290.79 53.459999999999994 291.44 53.61 292.02 53.91C292.6 54.209999999999994 293.06 54.56 293.4 54.959999999999994L295.89 52.739999999999995C295.65 52.44 295.34 52.14 294.96 51.81999999999999C294.58 51.51 294.15 51.23 293.66 50.97C293.16 50.709999999999994 292.62 50.5 292.02 50.339999999999996C291.42 50.17999999999999 290.77 50.099999999999994 290.07 50.099999999999994C289.01 50.099999999999994 288.02 50.29 287.09 50.67C286.16 51.05 285.35 51.58 284.66 52.26C283.97 52.94 283.42 53.73 283.02 54.64C282.62 55.56 282.42 56.53 282.42 57.56999999999999C282.42 58.61 282.62 59.589999999999996 283.02 60.489999999999995C283.42 61.4 283.97 62.19 284.66 62.86C285.35 63.53 286.16 64.07 287.09 64.45C288.02 64.84 289.01 65.03999999999999 290.07 65.03999999999999C290.79 65.03999999999999 291.45 64.96 292.05 64.78C292.65 64.61 293.2 64.4 293.7 64.14C294.2 63.879999999999995 294.64 63.589999999999996 295.02 63.269999999999996C295.4 62.95 295.71 62.64 295.95 62.339999999999996L293.58 59.94C293.3 60.36 292.86 60.76 292.26 61.12C291.66 61.5 290.94 61.67999999999999 290.1 61.67999999999999ZM306.57 50.099999999999994C305.57 50.099999999999994 304.74 50.31 304.07 50.739999999999995C303.4 51.17 302.88 51.65 302.52 52.17L302.52 42L298.92 42L298.92 64.67999999999999L302.52 64.67999999999999L302.52 55.31999999999999C302.64 55.12 302.78 54.91 302.96 54.69C303.13 54.47 303.33 54.269999999999996 303.57 54.089999999999996C303.81 53.91 304.08 53.76 304.38 53.64C304.68 53.519999999999996 305.03 53.459999999999994 305.43 53.459999999999994C305.79 53.459999999999994 306.13 53.519999999999996 306.45 53.62C306.77 53.73 307.06 53.91 307.32 54.15C307.58 54.39 307.79 54.69 307.94 55.06999999999999C308.09 55.44 308.16 55.87 308.16 56.37L308.16 64.67999999999999L311.76 64.67999999999999L311.76 55.47C311.76 54.61 311.62 53.849999999999994 311.34 53.19C311.06 52.53 310.68 51.97 310.2 51.51C309.72 51.05 309.17 50.7 308.54 50.459999999999994C307.91 50.22 307.25 50.099999999999994 306.57 50.099999999999994Z " fill="#1b3051"></path><path d="M5.55 79.67999999999999L2.22 79.67999999999999L2.22 100.67999999999999L5.82 100.67999999999999L5.82 86.58L12.39 96.57L18.96 86.58L18.96 100.67999999999999L22.56 100.67999999999999L22.56 79.67999999999999L19.23 79.67999999999999L12.39 90.24ZM36.54 92.25L29.49 92.25C29.51 91.92999999999999 29.59 91.6 29.74 91.25999999999999C29.89 90.92 30.11 90.61 30.4 90.33C30.7 90.05 31.05 89.82 31.47 89.64C31.89 89.46 32.39 89.37 32.97 89.37C33.57 89.37 34.09 89.46 34.53 89.64C34.97 89.82 35.34 90.06 35.63 90.35C35.91 90.63 36.13 90.95 36.28 91.28999999999999C36.44 91.63 36.52 91.95 36.54 92.25ZM32.97 86.1C31.95 86.1 31 86.28999999999999 30.12 86.67999999999999C29.24 87.07 28.48 87.6 27.85 88.28C27.22 88.95 26.73 89.72999999999999 26.37 90.63C26.01 91.53 25.83 92.49 25.83 93.50999999999999C25.83 94.57 26.02 95.56 26.41 96.47999999999999C26.8 97.4 27.34 98.2 28.03 98.88C28.72 99.56 29.53 100.09 30.46 100.47C31.39 100.85 32.4 101.03999999999999 33.48 101.03999999999999C34.74 101.03999999999999 35.86 100.82 36.84 100.38C37.82 99.94 38.6 99.47999999999999 39.18 99L37.38 96.3C36.82 96.82 36.19 97.19 35.49 97.41C34.79 97.63 34.14 97.74 33.54 97.74C32.96 97.74 32.44 97.65 31.98 97.47C31.52 97.28999999999999 31.12 97.07 30.76 96.78999999999999C30.41 96.52 30.13 96.22 29.92 95.88C29.71 95.53999999999999 29.57 95.2 29.49 94.86L40.11 94.86C40.13 94.58 40.14 94.32 40.14 94.08L40.14 93.50999999999999C40.14 92.41 39.95 91.41 39.57 90.49C39.19 89.58 38.67 88.8 38.02 88.15C37.38 87.50999999999999 36.61 87 35.74 86.64C34.88 86.28 33.95 86.1 32.97 86.1ZM41.85 86.46L41.85 89.7L44.64 89.7L44.64 96C44.64 96.75999999999999 44.76 97.45 45 98.07C45.24 98.69 45.58 99.22 46.02 99.66C46.46 100.1 46.98 100.44 47.58 100.67999999999999C48.18 100.92 48.83 101.03999999999999 49.53 101.03999999999999C50.17 101.03999999999999 50.79 100.96 51.39 100.78C51.99 100.61 52.5 100.39 52.92 100.11L51.6 97.17C51.4 97.31 51.17 97.42999999999999 50.91 97.53C50.65 97.63 50.37 97.67999999999999 50.07 97.67999999999999C49.85 97.67999999999999 49.63 97.65 49.41 97.57C49.19 97.5 48.99 97.38 48.82 97.21C48.66 97.05 48.52 96.82 48.41 96.52C48.29 96.24 48.24 95.87 48.24 95.42999999999999L48.24 89.7L52.53 89.7L52.53 86.46L48.24 86.46L48.24 82.22999999999999L44.64 82.22999999999999L44.64 86.46ZM63.75 86.1C62.75 86.1 61.92 86.31 61.25 86.74C60.58 87.17 60.06 87.65 59.7 88.17L59.7 78L56.1 78L56.1 100.67999999999999L59.7 100.67999999999999L59.7 91.32C59.82 91.12 59.96 90.91 60.14 90.69C60.31 90.47 60.51 90.27 60.75 90.09C60.99 89.91 61.26 89.75999999999999 61.56 89.64C61.86 89.52 62.21 89.46 62.61 89.46C62.97 89.46 63.31 89.52 63.63 89.62C63.95 89.72999999999999 64.24 89.91 64.5 90.15C64.76 90.39 64.97 90.69 65.12 91.07C65.27 91.44 65.34 91.87 65.34 92.37L65.34 100.67999999999999L68.94 100.67999999999999L68.94 91.47C68.94 90.61 68.8 89.85 68.52 89.19C68.24 88.53 67.86 87.97 67.38 87.50999999999999C66.9 87.05 66.34 86.7 65.72 86.46C65.09 86.22 64.43 86.1 63.75 86.1ZM79.38 97.67999999999999C78.78 97.67999999999999 78.23 97.57 77.75 97.35C77.25 97.13 76.84 96.83 76.5 96.46C76.16 96.1 75.9 95.66 75.72 95.16C75.54 94.66 75.45 94.13 75.45 93.57C75.45 93.00999999999999 75.54 92.49 75.72 91.99C75.9 91.5 76.16 91.07 76.5 90.69C76.84 90.31 77.26 90.00999999999999 77.75 89.78999999999999C78.23 89.57 78.78 89.46 79.38 89.46C79.98 89.46 80.52 89.57 81.02 89.78999999999999C81.5 90.00999999999999 81.92 90.31 82.26 90.69C82.6 91.07 82.86 91.5 83.04 91.99C83.22 92.47999999999999 83.31 93.00999999999999 83.31 93.57C83.31 94.13 83.22 94.66 83.04 95.16C82.86 95.66 82.6 96.1 82.26 96.46C81.92 96.83 81.51 97.13 81.02 97.35C80.52 97.57 79.98 97.67999999999999 79.38 97.67999999999999ZM79.38 86.1C78.32 86.1 77.33 86.28999999999999 76.41 86.67C75.49 87.05 74.69 87.58 74 88.25999999999999C73.31 88.94 72.77 89.72999999999999 72.38 90.64C71.98 91.56 71.79 92.53 71.79 93.57C71.79 94.61 71.98 95.59 72.38 96.49C72.77 97.4 73.31 98.19 74 98.86C74.69 99.53 75.49 100.07 76.41 100.45C77.33 100.84 78.32 101.03999999999999 79.38 101.03999999999999C80.44 101.03999999999999 81.43 100.84 82.35 100.45C83.27 100.07 84.08 99.53 84.77 98.86C85.45 98.2 86 97.41 86.39 96.49C86.78 95.59 86.97 94.61 86.97 93.57C86.97 92.53 86.78 91.56 86.39 90.64C86 89.72999999999999 85.45 88.94 84.77 88.25999999999999C84.08 87.58 83.27 87.05 82.35 86.67C81.43 86.28999999999999 80.44 86.1 79.38 86.1ZM99.81 91.44L99.81 95.7C99.51 96.22 99.08 96.67999999999999 98.52 97.08C97.96 97.47999999999999 97.24 97.67999999999999 96.36 97.67999999999999C95.18 97.67999999999999 94.24 97.28999999999999 93.55 96.50999999999999C92.86 95.72999999999999 92.52 94.75 92.52 93.57C92.52 92.39 92.86 91.41 93.55 90.63C94.24 89.85 95.18 89.46 96.36 89.46C97.24 89.46 97.96 89.66 98.52 90.06C99.08 90.46 99.51 90.92 99.81 91.44ZM103.41 100.67999999999999L103.41 78L99.81 78L99.81 87.96C99.45 87.5 98.94 87.07 98.28 86.67999999999999C97.62 86.28999999999999 96.78 86.1 95.76 86.1C94.86 86.1 93.99 86.28 93.15 86.65C92.31 87.03 91.57 87.53999999999999 90.94 88.2C90.31 88.86 89.81 89.64 89.43 90.55C89.05 91.47 88.86 92.47 88.86 93.57C88.86 94.65 89.05 95.65 89.43 96.57C89.81 97.49 90.31 98.28 90.94 98.94C91.57 99.6 92.3 100.12 93.13 100.47999999999999C93.96 100.85 94.84 101.03999999999999 95.76 101.03999999999999C96.84 101.03999999999999 97.74 100.82 98.46 100.36C99.18 99.91 99.72 99.4 100.08 98.82L100.08 100.67999999999999ZM114.27 97.67999999999999C113.67 97.67999999999999 113.12 97.57 112.63 97.35C112.14 97.13 111.73 96.83 111.39 96.46C111.05 96.1 110.79 95.66 110.61 95.16C110.43 94.66 110.34 94.13 110.34 93.57C110.34 93.00999999999999 110.43 92.49 110.61 91.99C110.79 91.5 111.05 91.07 111.39 90.69C111.73 90.31 112.15 90.00999999999999 112.63 89.78999999999999C113.12 89.57 113.67 89.46 114.27 89.46C114.87 89.46 115.41 89.57 115.9 89.78999999999999C116.39 90.00999999999999 116.81 90.31 117.15 90.69C117.49 91.07 117.75 91.5 117.93 91.99C118.11 92.47999999999999 118.2 93.00999999999999 118.2 93.57C118.2 94.13 118.11 94.66 117.93 95.16C117.75 95.66 117.49 96.1 117.15 96.46C116.81 96.83 116.4 97.13 115.9 97.35C115.41 97.57 114.87 97.67999999999999 114.27 97.67999999999999ZM114.27 86.1C113.21 86.1 112.22 86.28999999999999 111.3 86.67C110.38 87.05 109.57 87.58 108.88 88.25999999999999C108.19 88.94 107.65 89.72999999999999 107.26 90.64C106.87 91.56 106.68 92.53 106.68 93.57C106.68 94.61 106.87 95.59 107.26 96.49C107.65 97.4 108.19 98.19 108.88 98.86C109.57 99.53 110.38 100.07 111.3 100.45C112.22 100.84 113.21 101.03999999999999 114.27 101.03999999999999C115.33 101.03999999999999 116.32 100.84 117.24 100.45C118.16 100.07 118.96 99.53 119.65 98.86C120.34 98.2 120.88 97.41 121.27 96.49C121.66 95.59 121.86 94.61 121.86 93.57C121.86 92.53 121.66 91.56 121.27 90.64C120.88 89.72999999999999 120.34 88.94 119.65 88.25999999999999C118.96 87.58 118.16 87.05 117.24 86.67C116.32 86.28999999999999 115.33 86.1 114.27 86.1ZM125.13 78L125.13 100.67999999999999L128.73 100.67999999999999L128.73 78ZM139.59 97.67999999999999C138.99 97.67999999999999 138.44 97.57 137.95 97.35C137.46 97.13 137.05 96.83 136.71 96.46C136.37 96.1 136.11 95.66 135.93 95.16C135.75 94.66 135.66 94.13 135.66 93.57C135.66 93.00999999999999 135.75 92.49 135.93 91.99C136.11 91.5 136.37 91.07 136.71 90.69C137.05 90.31 137.47 90.00999999999999 137.95 89.78999999999999C138.44 89.57 138.99 89.46 139.59 89.46C140.19 89.46 140.73 89.57 141.22 89.78999999999999C141.71 90.00999999999999 142.13 90.31 142.47 90.69C142.81 91.07 143.07 91.5 143.25 91.99C143.43 92.47999999999999 143.52 93.00999999999999 143.52 93.57C143.52 94.13 143.43 94.66 143.25 95.16C143.07 95.66 142.81 96.1 142.47 96.46C142.13 96.83 141.72 97.13 141.22 97.35C140.73 97.57 140.19 97.67999999999999 139.59 97.67999999999999ZM139.59 86.1C138.53 86.1 137.54 86.28999999999999 136.62 86.67C135.7 87.05 134.9 87.58 134.2 88.25999999999999C133.51 88.94 132.97 89.72999999999999 132.59 90.64C132.19 91.56 132 92.53 132 93.57C132 94.61 132.19 95.59 132.59 96.49C132.97 97.4 133.51 98.19 134.2 98.86C134.9 99.53 135.7 100.07 136.62 100.45C137.54 100.84 138.53 101.03999999999999 139.59 101.03999999999999C140.65 101.03999999999999 141.64 100.84 142.56 100.45C143.48 100.07 144.28 99.53 144.97 98.86C145.66 98.2 146.2 97.41 146.59 96.49C146.98 95.59 147.18 94.61 147.18 93.57C147.18 92.53 146.98 91.56 146.59 90.64C146.2 89.72999999999999 145.66 88.94 144.97 88.25999999999999C144.28 87.58 143.48 87.05 142.56 86.67C141.64 86.28999999999999 140.65 86.1 139.59 86.1ZM160.02 91.44L160.02 95.7C159.88 95.92 159.71 96.15 159.51 96.39C159.31 96.63 159.06 96.84 158.77 97.03C158.49 97.22999999999999 158.16 97.38 157.8 97.5C157.44 97.62 157.03 97.67999999999999 156.57 97.67999999999999C155.39 97.67999999999999 154.45 97.28999999999999 153.76 96.50999999999999C153.07 95.72999999999999 152.73 94.75 152.73 93.57C152.73 92.39 153.07 91.41 153.76 90.63C154.45 89.85 155.39 89.46 156.57 89.46C157.45 89.46 158.17 89.66 158.73 90.06C159.29 90.46 159.72 90.92 160.02 91.44ZM160.02 99.21L160.02 99.21L160.02 100.92C160.02 102 159.69 102.88 159.04 103.56C158.4 104.24 157.42 104.58 156.12 104.58C155.04 104.58 154.1 104.37 153.3 103.93C152.5 103.5 151.82 103.02 151.26 102.47999999999999L149.22 105.24C149.54 105.53999999999999 149.93 105.85 150.39 106.16999999999999C150.85 106.49 151.37 106.78 151.95 107.03999999999999C152.53 107.3 153.16 107.50999999999999 153.85 107.68C154.54 107.86 155.28 107.94 156.06 107.94C157.02 107.94 157.95 107.8 158.86 107.52C159.78 107.24 160.59 106.81 161.29 106.22999999999999C162 105.65 162.57 104.91 162.99 104.00999999999999C163.41 103.11 163.62 102.03999999999999 163.62 100.8L163.62 86.46L160.29 86.46L160.29 88.32C159.91 87.75999999999999 159.36 87.25 158.66 86.78999999999999C157.95 86.33 157.05 86.1 155.97 86.1C155.07 86.1 154.2 86.28 153.36 86.65C152.52 87.03 151.78 87.53999999999999 151.16 88.2C150.52 88.86 150.02 89.64 149.64 90.55C149.26 91.47 149.07 92.47 149.07 93.57C149.07 94.67 149.26 95.67999999999999 149.64 96.58C150.02 97.5 150.52 98.28 151.16 98.94C151.78 99.6 152.52 100.12 153.36 100.47999999999999C154.2 100.85 155.07 101.03999999999999 155.97 101.03999999999999C156.55 101.03999999999999 157.06 100.97 157.51 100.84C157.96 100.72 158.35 100.55 158.69 100.35C159.01 100.15 159.29 99.95 159.51 99.75C159.73 99.55 159.9 99.37 160.02 99.21ZM167.91 103.65L166.23 106.44C166.69 106.84 167.25 107.19 167.91 107.49C168.57 107.78999999999999 169.32 107.94 170.16 107.94C170.64 107.94 171.13 107.87 171.62 107.74C172.1 107.62 172.57 107.39 173.03 107.07C173.47 106.75 173.91 106.33 174.31 105.81C174.72 105.28999999999999 175.08 104.64 175.38 103.86L182.28 86.46L178.41 86.46L174.66 96.87L169.86 86.46L165.87 86.46L172.8 101.00999999999999L172.23 102.47999999999999C171.93 103.24 171.62 103.78 171.3 104.1C170.98 104.41999999999999 170.53 104.58 169.95 104.58C169.59 104.58 169.26 104.50999999999999 168.96 104.37C168.66 104.22999999999999 168.31 103.99 167.91 103.65Z " fill="#1b3051"></path></svg>